HIERARCHY
ROOT Hips
{
 OFFSET 0.000000 0.000000 0.000000
 CHANNELS 6 Xposition Yposition Zposition Yrotation Xrotation Zrotation
 JOINT Chest
 {
  OFFSET 0.000000 10.080317 -0.001081
  CHANNELS 3 Yrotation Xrotation Zrotation
  JOINT Chest2
  {
   OFFSET 0.000000 11.096852 0.001963
   CHANNELS 3 Yrotation Xrotation Zrotation
   JOINT Chest3
   {
    OFFSET 0.000000 10.026525 0.000000
    CHANNELS 3 Yrotation Xrotation Zrotation
    JOINT Chest4
    {
     OFFSET 0.000000 10.026525 0.000000
     CHANNELS 3 Yrotation Xrotation Zrotation
     JOINT Neck
     {
      OFFSET 0.000000 14.108171 0.000000
      CHANNELS 3 Yrotation Xrotation Zrotation
      JOINT Head
      {
       OFFSET 0.000000 9.333493 0.004668
       CHANNELS 3 Yrotation Xrotation Zrotation
       End Site
       {
        OFFSET 0.000000 17.851786 0.002438
       }
      }
     }
     JOINT RightCollar
     {
      OFFSET -3.071622 7.873185 0.000000
      CHANNELS 3 Yrotation Xrotation Zrotation
      JOINT RightShoulder
      {
       OFFSET -14.378659 0.000000 0.000000
       CHANNELS 3 Yrotation Xrotation Zrotation
       JOINT RightElbow
       {
        OFFSET -30.778728 0.000000 0.000000
        CHANNELS 3 Yrotation Xrotation Zrotation
        JOINT RightWrist
        {
         OFFSET -25.164217 0.000000 0.000000
         CHANNELS 3 Yrotation Xrotation Zrotation
         End Site
         {
          OFFSET -18.796788 0.000000 0.000000
         }
        }
       }
      }
     }
     JOINT LeftCollar
     {
      OFFSET 3.071622 7.873185 0.000000
      CHANNELS 3 Yrotation Xrotation Zrotation
      JOINT LeftShoulder
      {
       OFFSET 14.378659 0.000000 0.000000
       CHANNELS 3 Yrotation Xrotation Zrotation
       JOINT LeftElbow
       {
        OFFSET 30.778728 0.000000 0.000000
        CHANNELS 3 Yrotation Xrotation Zrotation
        JOINT LeftWrist
        {
         OFFSET 25.164217 0.000000 0.000000
         CHANNELS 3 Yrotation Xrotation Zrotation
         End Site
         {
          OFFSET 18.796788 0.000000 0.000000
         }
        }
       }
      }
     }
    }
   }
  }
 }
 JOINT RightHip
 {
  OFFSET -8.194923 0.005295 0.000540
  CHANNELS 3 Yrotation Xrotation Zrotation
  JOINT RightKnee
  {
   OFFSET 0.000000 -42.473320 -0.000511
   CHANNELS 3 Yrotation Xrotation Zrotation
   JOINT RightAnkle
   {
    OFFSET 0.000000 -41.474259 -0.000865
    CHANNELS 3 Yrotation Xrotation Zrotation
    JOINT RightToe
    {
     OFFSET 0.000000 -7.354994 16.712725
     CHANNELS 3 Yrotation Xrotation Zrotation
     End Site
     {
      OFFSET 0.000000 -1.553903 6.764158
     }
    }
   }
  }
 }
 JOINT LeftHip
 {
  OFFSET 8.194923 0.005295 0.000540
  CHANNELS 3 Yrotation Xrotation Zrotation
  JOINT LeftKnee
  {
   OFFSET 0.000000 -42.473320 -0.000511
   CHANNELS 3 Yrotation Xrotation Zrotation
   JOINT LeftAnkle
   {
    OFFSET 0.000000 -41.474259 -0.000865
    CHANNELS 3 Yrotation Xrotation Zrotation
    JOINT LeftToe
    {
     OFFSET 0.000000 -7.354994 16.712725
     CHANNELS 3 Yrotation Xrotation Zrotation
     End Site
     {
      OFFSET 0.000000 -1.553903 6.764158
     }
    }
   }
  }
 }
}
MOTION
Frames: 13
Frame Time: 0.016667
-42.709650 95.911676 147.820967 68.643687 -7.469503 -24.196247 -6.006548 6.225887 2.506553 -2.556613 2.873088 1.710098 -2.556613 2.873088 1.710098 -1.925121 2.147729 1.294359 -8.100299 21.598028 9.716625 -17.252091 5.961187 19.750489 3.260784 -8.854530 7.986619 -13.791646 -29.164425 21.168537 89.305425 -18.134586 24.327387 11.641208 -5.777816 -13.096253 -15.834509 -10.269404 -6.196643 -27.958913 -50.388745 -56.646926 -87.556408 -18.512695 -55.462378 2.197555 10.942471 11.231379 -4.274875 -44.225052 -24.796066 -30.974453 62.228967 -16.722454 7.514832 42.948798 5.556117 -2.970616 -9.575871 -6.738122 17.766449 -7.379694 19.140850 -2.031200 14.504257 -3.293674 7.937665 -5.397037 12.709971 0.510670 0.375746 0.514754
-42.335431 95.725158 147.525077 67.157894 -8.097766 -23.134480 -5.833410 6.113579 2.462624 -2.545800 2.855918 1.601058 -2.545800 2.855918 1.601058 -1.916457 2.135332 1.212475 -7.924550 21.529700 9.512912 -16.899295 5.751339 19.352402 3.714053 -8.947764 8.048503 -13.270246 -30.169522 21.013506 90.475427 -18.524614 23.743839 11.323393 -5.834013 -12.940692 -15.596518 -10.237376 -6.184529 -27.466526 -50.413123 -56.594077 -88.143191 -18.925054 -55.033789 2.315354 11.000248 11.287397 -5.681297 -41.985625 -22.440003 -31.034824 62.021919 -16.460404 7.726949 43.073290 6.584410 -2.850625 -9.002078 -6.636412 18.053707 -5.886451 18.165713 -0.945547 13.826724 -3.214910 8.483058 -5.677115 12.753084 0.434698 0.517329 0.486589
-41.955832 95.545991 147.253441 65.727595 -8.712071 -21.970247 -5.679257 6.058465 2.301789 -2.514133 2.855362 1.488784 -2.514133 2.855362 1.488784 -1.892183 2.135457 1.128134 -7.767483 21.431696 9.321684 -16.587324 5.495575 18.985494 4.104387 -9.036872 8.096907 -12.892729 -30.981186 20.951043 91.626517 -18.967074 23.235569 11.095233 -5.861635 -12.872426 -15.309229 -10.193626 -6.204299 -26.913901 -50.358590 -56.609277 -88.679254 -19.253389 -54.666506 2.442240 11.066704 11.438037 -6.831064 -39.234736 -20.420077 -31.109946 61.101811 -15.898448 8.102964 43.348963 7.530364 -2.797281 -8.319710 -6.516449 18.174260 -4.388034 17.099028 0.272306 13.228197 -3.149094 8.947521 -5.886548 12.832000 0.376294 0.560376 0.436763
-41.586579 95.365147 147.015895 64.285667 -9.278640 -20.796082 -5.455313 5.997664 2.131988 -2.447358 2.830255 1.372091 -2.447358 2.830255 1.372091 -1.841514 2.117251 1.040220 -7.634813 21.331876 9.119076 -16.315596 5.240663 18.603832 4.374022 -9.019833 8.132068 -12.659298 -31.561143 21.036116 92.764108 -19.403881 22.766941 10.929484 -5.888288 -12.800066 -14.934034 -10.152325 -6.200528 -26.028587 -50.211699 -57.022236 -89.092492 -19.533831 -54.477788 2.594769 11.095467 11.646852 -7.586259 -36.099103 -18.637378 -31.177751 59.601179 -15.003331 8.480969 43.460040 8.389437 -2.733230 -7.421965 -6.379043 18.465657 -3.029602 15.991394 1.420807 12.670911 -3.041365 9.272365 -6.100321 12.926709 0.319390 0.595954 0.362294
-41.228036 95.173245 146.792111 62.786192 -9.746395 -19.690442 -5.173233 5.914798 2.035440 -2.365145 2.772915 1.254061 -2.365145 2.772915 1.254061 -1.779215 2.074882 0.951117 -7.507602 21.231232 8.892072 -16.046601 4.981518 18.179078 4.578689 -8.990930 8.127154 -12.533456 -31.895364 21.270332 93.838370 -19.872322 22.367488 10.725700 -5.914875 -12.663420 -14.471481 -10.081949 -6.209965 -25.049337 -49.921202 -57.589507 -89.386898 -19.773303 -54.336724 2.766097 11.085277 11.905786 -8.663981 -32.901418 -16.627351 -31.026121 57.431285 -14.221038 9.233217 43.371045 9.591880 -2.710561 -6.376975 -6.367151 18.846998 -1.857526 14.914730 2.087796 12.126735 -3.019819 9.954348 -6.342787 13.076896 0.193615 0.642891 0.249033
-40.925897 94.970891 146.590140 61.207592 -10.030155 -18.620391 -4.840720 5.747456 1.942411 -2.248543 2.689120 1.127576 -2.248543 2.689120 1.127576 -1.691069 2.012733 0.855440 -7.378868 21.130793 8.696363 -15.781807 4.730114 17.809419 4.605353 -9.010237 8.220521 -12.454684 -32.121103 21.674833 94.791433 -20.329309 22.170524 10.506337 -5.882180 -12.492324 -14.085896 -9.866745 -6.149868 -24.034043 -49.585798 -58.081241 -89.727801 -19.986457 -54.181589 2.884876 11.087381 12.221579 -9.385413 -29.708304 -14.654094 -30.145155 54.804028 -12.886151 9.793137 42.846367 11.262828 -2.682265 -5.181173 -6.484130 18.871400 -0.925766 13.917060 2.960025 11.757239 -3.114301 10.642865 -6.620529 13.202943 0.111816 0.678344 0.175917
-40.634170 94.762868 146.364038 59.643897 -10.199327 -17.542564 -4.535752 5.581616 1.795979 -2.128637 2.594117 1.009118 -2.128637 2.594117 1.009118 -1.600496 1.942108 0.765761 -7.262049 21.007011 8.517637 -15.545730 4.442862 17.476357 4.542938 -9.089415 8.405651 -12.423654 -32.330844 22.239881 95.573190 -20.766101 22.248656 10.327778 -5.814666 -12.381010 -13.692874 -9.555034 -6.178392 -23.061369 -49.213271 -58.355918 -90.120306 -20.240572 -54.054364 3.011150 11.183772 12.596118 -10.147134 -26.516900 -12.732528 -28.279951 51.793702 -10.952969 10.057616 41.779711 12.924530 -2.631016 -3.842840 -6.552753 18.895536 -0.244231 12.903471 3.938981 11.629098 -3.264769 11.139990 -6.957727 13.317766 0.053949 0.650302 0.155786
-40.356566 94.571070 146.122702 58.219222 -10.248689 -16.497537 -4.296882 5.388774 1.632526 -2.017978 2.502859 0.895717 -2.017978 2.502859 0.895717 -1.516917 1.874216 0.679959 -7.174071 20.858252 8.329235 -15.362109 4.114592 17.136640 4.462903 -9.100962 8.689688 -12.517668 -32.485180 22.916457 96.259212 -21.277889 22.465570 10.117325 -5.762262 -12.263475 -13.262311 -9.153048 -6.266889 -21.877853 -48.789828 -58.541884 -90.462865 -20.668974 -54.110449 3.146855 11.326692 12.854587 -10.873202 -23.278479 -11.058425 -25.364009 48.405079 -8.305399 10.050763 40.403852 14.490159 -2.543916 -2.521914 -6.471008 18.892925 0.137443 11.888890 4.855656 11.801735 -3.406455 11.446990 -7.327359 13.368923 0.077008 0.558374 0.186862
-40.117510 94.391744 145.873452 56.998026 -10.244617 -15.529695 -4.162403 5.232708 1.523329 -1.932338 2.421922 0.801803 -1.932338 2.421922 0.801803 -1.452220 1.813932 0.608932 -7.110950 20.675904 8.075510 -15.210159 3.717615 16.690239 4.400307 -9.061412 8.940775 -12.657642 -32.496279 23.616163 96.890324 -21.785622 22.680005 9.935970 -5.678905 -12.136195 -12.875789 -8.718122 -6.420608 -20.290324 -48.164661 -58.716236 -90.669449 -21.336968 -54.330941 3.122526 11.396247 13.023099 -11.784356 -20.025774 -9.596550 -22.140659 44.747123 -5.764806 10.169379 38.490695 15.920095 -2.465591 -1.116474 -6.335587 18.895351 0.327686 10.941945 5.687654 12.155863 -3.572526 11.652870 -7.678162 13.449421 0.062723 0.390654 0.204896
-39.889341 94.210286 145.595574 55.780490 -10.276206 -14.499846 -3.985096 5.120002 1.352360 -1.832575 2.350376 0.735016 -1.832575 2.350376 0.735016 -1.377069 1.760600 0.558242 -7.060301 20.464534 7.757232 -15.066206 3.258299 16.134264 4.268847 -8.974971 9.149619 -12.842876 -32.354765 24.520676 97.613848 -22.029641 22.870652 9.738525 -5.491822 -12.062073 -12.435506 -8.221767 -6.592388 -18.414169 -47.317571 -58.903709 -90.652754 -22.291726 -54.753028 3.019658 11.412442 13.287355 -11.933718 -16.861124 -8.638708 -19.304241 41.001700 -3.557425 10.185398 36.226747 17.114914 -2.090617 -4.688088 -6.284286 19.217438 0.572265 9.962100 6.202236 12.403552 -3.780472 11.852304 -7.973294 13.503720 0.085059 0.215761 0.267808
-39.671493 94.024042 145.317502 54.514273 -10.367473 -13.661141 -3.761199 5.135543 1.392980 -1.714843 2.292280 0.692263 -1.714843 2.292280 0.692263 -1.288560 1.717287 0.525568 -6.998312 20.213672 7.416597 -14.899477 2.721262 15.539589 4.105324 -8.824924 9.321948 -13.014674 -32.057027 25.614420 98.363604 -22.082599 22.954141 9.566084 -5.239370 -11.904704 -11.837686 -7.701294 -6.700787 -16.430518 -46.236360 -59.160022 -90.439343 -23.272396 -55.261982 2.813747 11.362945 13.649634 -11.670821 -13.691525 -7.661210 -16.802065 36.923009 -1.898531 10.062819 33.852523 18.152793 -1.611884 -9.200977 -6.658415 19.767877 0.757156 9.225012 6.452250 12.711818 -4.063764 12.153776 -8.415762 13.485599 0.074299 0.125011 0.381936
-39.480509 93.817909 145.022772 53.174796 -10.358217 -12.722387 -3.451369 5.097708 1.413925 -1.593404 2.252897 0.661567 -1.593404 2.252897 0.661567 -1.197340 1.687965 0.501992 -6.938280 19.919427 7.085872 -14.742923 2.108058 14.968438 3.864161 -8.639410 9.474136 -13.163254 -31.625086 26.890962 99.041535 -22.086938 23.029903 9.347931 -4.965683 -11.673853 -11.171224 -7.198768 -6.719101 -14.495372 -44.754721 -59.447814 -90.168947 -24.139398 -55.688013 2.570786 11.299802 14.087373 -10.827050 -11.090609 -6.943483 -14.400555 33.142447 -0.695473 9.401913 31.689113 18.745962 -0.954107 -13.497560 -6.969938 20.142088 0.729120 8.434546 6.971074 13.341470 -4.358087 12.260807 -8.880804 13.326310 0.185688 -0.042587 0.571481
-39.361788 93.585303 144.708631 51.856058 -10.308915 -11.746302 -3.129259 5.088824 1.428388 -1.469038 2.226459 0.652023 -1.469038 2.226459 0.652023 -1.104018 1.668291 0.494313 -6.888361 19.598967 6.766984 -14.609167 1.451842 14.424000 3.609963 -8.442024 9.659397 -13.434152 -31.101985 28.184512 99.496782 -22.226879 23.278512 9.118541 -4.800374 -11.346025 -10.468693 -6.724660 -6.639538 -12.512886 -42.956822 -59.799309 -89.703952 -24.870013 -56.170681 2.296383 11.185826 14.618625 -9.289899 -8.800369 -6.397856 -12.480210 29.567864 0.083438 8.161961 29.525466 18.513588 -0.359643 -16.146780 -6.724133 20.313352 0.406067 7.614045 7.800560 14.468932 -4.599616 12.289250 -9.430892 13.107808 0.224970 -0.315378 0.739546
